<?xml version="1.0" encoding="UTF-8"?>
<svg xmlns="http://www.w3.org/2000/svg" xmlns:xlink="http://www.w3.org/1999/xlink" width="40pt" height="40pt" viewBox="0 0 40 40" version="1.1">
<g id="surface1">
<path style=" stroke:none;fill-rule:nonzero;fill:rgb(100%,40%,60%);fill-opacity:1;" d="M 10.015625 17.410156 C 10.015625 13 13.542969 9.414062 17.878906 9.414062 C 22.210938 9.414062 25.734375 13 25.734375 17.40625 C 25.734375 21.816406 22.210938 25.40625 17.878906 25.40625 C 13.539062 25.40625 10.011719 21.820312 10.011719 17.40625 Z M 32.222656 30.234375 L 25.828125 23.730469 C 27.171875 21.984375 27.980469 19.792969 27.980469 17.410156 C 27.980469 11.738281 23.449219 7.132812 17.878906 7.132812 C 12.304688 7.132812 7.773438 11.738281 7.773438 17.410156 C 7.773438 23.078125 12.304688 27.683594 17.878906 27.683594 C 19.789062 27.683594 21.570312 27.132812 23.097656 26.1875 L 29.648438 32.855469 C 30.355469 33.578125 31.515625 33.578125 32.222656 32.855469 C 32.929688 32.136719 32.929688 30.957031 32.222656 30.234375 Z M 32.222656 30.234375 "/>
</g>
</svg>
